<?xml version="1.0" standalone="no"?>
<!DOCTYPE svg PUBLIC "-//W3C//DTD SVG 20010904//EN"
 "http://www.w3.org/TR/2001/REC-SVG-20010904/DTD/svg10.dtd">
<svg version="1.0" xmlns="http://www.w3.org/2000/svg"
 width="512.000000pt" height="512.000000pt" viewBox="0 0 512.000000 512.000000"
 preserveAspectRatio="xMidYMid meet">
<metadata>
Created by potrace 1.14, written by Peter Selinger 2001-2017
</metadata>
<g transform="translate(0.000000,512.000000) scale(0.100000,-0.100000)"
fill="#000000" stroke="none">
<path d="M1405 3641 c-137 -34 -205 -162 -205 -386 0 -164 48 -314 122 -380
37 -34 38 -36 23 -59 -27 -41 -73 -179 -84 -256 -16 -107 -31 -351 -31 -521
l0 -147 40 -60 c177 -265 748 -477 1280 -475 522 2 1014 161 1241 400 66 69
85 102 94 163 10 71 -13 605 -30 685 -8 39 -29 107 -46 151 l-31 82 40 40 c75
75 107 210 100 416 -6 154 -27 221 -85 278 -57 55 -103 71 -208 71 -175 -1
-344 -69 -481 -195 l-41 -38 -109 25 c-263 59 -578 59 -867 1 l-116 -24 -46
42 c-51 48 -154 111 -233 145 -99 41 -249 61 -327 42z m1104 -298 c-17 -33
-19 -61 -19 -251 0 -216 4 -242 39 -269 45 -35 104 8 115 83 9 69 7 393 -3
437 l-9 37 54 0 c82 0 278 -28 385 -55 244 -61 363 -133 495 -299 l39 -50 -70
51 c-151 109 -291 152 -432 132 -91 -13 -165 -50 -239 -121 -73 -70 -116 -150
-138 -260 -20 -96 -20 -119 -1 -216 39 -194 172 -366 355 -455 167 -82 292
-86 437 -16 132 66 220 184 245 331 l13 73 6 -70 c11 -119 10 -512 -1 -541
-17 -43 -120 -135 -215 -191 -207 -123 -495 -202 -850 -234 -284 -25 -671 28
-930 127 -196 76 -372 189 -433 278 -31 47 -32 51 -32 155 0 133 18 429 29
496 l9 50 1 -46 c6 -239 164 -430 389 -469 204 -36 486 132 596 353 85 172 87
331 9 496 -150 316 -519 351 -800 76 -85 -84 -88 -80 -17 21 66 93 172 186
272 237 171 88 407 142 638 146 l82 1 -19 -37z m-498 -638 c40 -21 69 -71 69
-120 0 -77 -59 -135 -137 -135 -71 0 -133 63 -133 135 0 41 30 95 64 116 38
23 97 24 137 4z m1270 -24 c34 -34 39 -44 39 -86 0 -150 -204 -180 -251 -38
-9 28 -8 43 6 78 20 55 64 85 124 85 37 0 49 -5 82 -39z"/>
<path d="M2506 2059 c-73 -8 -107 -35 -87 -71 6 -13 28 -34 49 -48 62 -42 72
-57 72 -103 0 -49 -19 -81 -60 -102 -62 -32 -161 -9 -190 46 -8 15 -15 18 -22
11 -17 -17 10 -70 51 -98 68 -46 187 -22 227 46 l18 30 30 -36 c35 -43 80 -64
136 -64 72 0 138 42 155 98 7 25 -12 31 -22 7 -9 -26 -78 -55 -128 -55 -77 0
-114 28 -136 103 -14 49 -1 75 57 113 62 41 75 68 46 96 -24 24 -111 36 -196
27z"/>
<path d="M2471 1881 c-19 -12 -6 -43 16 -39 10 2 18 12 18 22 0 22 -14 29 -34
17z"/>
<path d="M2623 1884 c-19 -8 -3 -34 21 -34 29 0 39 10 25 27 -12 13 -25 15
-46 7z"/>
</g>
</svg>
