<?xml version="1.0" standalone="no"?>
<!DOCTYPE svg PUBLIC "-//W3C//DTD SVG 20010904//EN"
 "http://www.w3.org/TR/2001/REC-SVG-20010904/DTD/svg10.dtd">
<svg version="1.0" xmlns="http://www.w3.org/2000/svg"
 width="150.000000pt" height="150.000000pt" viewBox="0 0 150.000000 150.000000"
 preserveAspectRatio="xMidYMid meet">
<metadata>
Created by potrace 1.14, written by Peter Selinger 2001-2017
</metadata>
<g transform="translate(0.000000,150.000000) scale(0.100000,-0.100000)"
fill="#000000" stroke="none">
<path d="M944 1469 c-15 -17 -19 -36 -19 -93 0 -68 12 -111 56 -197 4 -9 22
-65 39 -124 l31 -107 -26 -33 c-32 -43 -142 -140 -157 -140 -19 0 -28 63 -12
76 8 6 14 20 14 30 0 25 -38 120 -56 140 -8 9 -25 48 -39 88 -13 40 -37 89
-54 109 -16 21 -34 56 -40 79 -6 23 -16 45 -21 48 -6 4 -26 -3 -45 -15 -60
-37 -159 -231 -190 -370 -7 -30 -13 -59 -15 -65 -1 -5 -2 -22 -1 -37 1 -21 6
-28 22 -28 16 0 19 -4 14 -17 -5 -10 -13 -39 -19 -66 -9 -41 -7 -52 9 -80 10
-17 24 -36 32 -40 19 -12 16 -27 -6 -27 -30 0 -73 -39 -69 -64 2 -14 9 -20 22
-18 40 7 47 -4 30 -48 -13 -31 -15 -59 -11 -112 3 -39 8 -72 11 -75 2 -3 13 0
24 6 15 8 20 25 26 92 6 75 31 148 55 163 4 3 11 -33 15 -80 8 -97 13 -114 31
-114 22 0 27 17 27 89 l0 68 33 1 33 1 3 -84 c4 -96 17 -119 49 -90 15 13 20
31 20 65 0 73 12 140 24 140 7 0 12 -29 13 -80 2 -44 9 -96 17 -115 25 -59 66
-40 66 31 0 24 5 45 13 48 8 3 7 8 -5 16 -12 7 -18 24 -18 49 l0 38 49 5 c37
4 66 17 127 57 100 67 119 99 117 196 -2 92 -61 307 -131 470 -14 33 -28 91
-32 133 -9 88 -26 114 -56 81z m-273 -365 c20 -38 40 -80 44 -93 6 -21 5 -23
-22 -18 -15 3 -56 9 -90 12 -74 8 -75 13 -37 95 30 64 43 82 58 77 6 -2 27
-35 47 -73z m-21 -213 c0 -3 -5 -13 -10 -21 -8 -13 -11 -12 -24 5 -8 11 -12
23 -10 26 5 8 44 -1 44 -10z m-99 -27 c-12 -27 -17 -32 -20 -18 -1 11 -10 27
-19 37 -14 16 -13 17 20 17 l36 0 -17 -36z m213 16 c39 -15 33 -40 -9 -40 -31
0 -35 3 -35 25 0 28 6 30 44 15z m306 -85 c0 -84 -38 -136 -134 -182 -30 -14
-40 -15 -54 -5 -9 7 -27 17 -40 22 l-23 10 20 26 c12 15 21 33 21 40 0 9 12
14 35 14 29 0 45 10 97 60 35 33 66 60 71 60 4 0 7 -20 7 -45z m-425 -82 c4
-21 16 -50 27 -66 19 -27 19 -57 -1 -57 -6 0 -15 9 -21 20 -7 13 -21 20 -42
20 -30 0 -31 1 -14 19 10 11 20 38 23 60 7 51 19 53 28 4z m135 7 c0 -36 -24
-41 -41 -9 -9 17 -8 23 2 30 26 16 39 9 39 -21z m-240 0 c0 -11 -7 -20 -15
-20 -15 0 -21 21 -8 33 12 13 23 7 23 -13z"/>
<path d="M416 164 c-25 -24 -19 -38 27 -67 15 -10 25 -22 22 -27 -9 -14 -43
-12 -48 3 -2 6 -8 9 -12 5 -13 -12 15 -38 41 -38 14 0 28 9 35 22 11 20 8 25
-27 54 -34 29 -36 34 -20 40 11 4 21 2 26 -7 5 -7 12 -10 16 -6 9 9 -15 37
-32 37 -7 0 -20 -7 -28 -16z"/>
<path d="M547 174 c-5 -10 9 -123 17 -131 5 -5 12 10 28 57 3 9 11 -4 18 -30
15 -54 25 -40 34 48 6 69 -8 86 -19 20 l-7 -42 -12 30 -13 29 -10 -30 -11 -30
-1 30 c-1 33 -15 62 -24 49z"/>
<path d="M717 162 c-19 -21 -22 -73 -7 -103 7 -12 21 -19 40 -19 35 0 50 23
50 74 0 59 -48 86 -83 48z m48 -53 c0 -34 -4 -44 -17 -47 -15 -3 -18 4 -18 41
0 24 3 47 7 51 16 16 28 -4 28 -45z"/>
<path d="M867 173 c-4 -3 -7 -35 -7 -70 0 -49 3 -63 15 -63 9 0 15 9 15 25 0
14 4 25 8 25 5 0 15 -11 22 -25 7 -14 19 -25 27 -25 17 0 17 11 -1 35 -12 16
-12 22 1 42 14 21 14 25 -2 43 -17 19 -65 27 -78 13z m52 -22 c16 -10 6 -31
-15 -31 -8 0 -14 9 -14 20 0 22 7 25 29 11z"/>
<path d="M1015 110 l0 -70 37 0 c49 0 73 33 64 85 -7 38 -30 55 -73 55 l-28 0
0 -70z m63 38 c22 -22 12 -88 -14 -88 -10 0 -14 14 -14 50 0 51 6 60 28 38z"/>
</g>
</svg>
